<svg version="1.1" xmlns="http://www.w3.org/2000/svg" xmlns:xlink="http://www.w3.org/1999/xlink" width="282.000000pt" height="215.000000pt" viewBox="0,0,256,195.175"><g fill="#aa053f" fill-rule="nonzero" stroke="none" stroke-width="1" stroke-linecap="butt" stroke-linejoin="miter" stroke-miterlimit="10" stroke-dasharray="" stroke-dashoffset="0" font-family="none" font-weight="none" font-size="none" text-anchor="none" style="mix-blend-mode: normal"><g transform="translate(0.4539,0.62388) scale(0.9078,0.9078)"><g transform="translate(0,215) scale(0.1,-0.1)"><path d="M6,2134c-3,-9 -6,-171 -6,-360v-344h25h25v165v165h1355h1355v-165v-165h25h25l-2,358l-3,357l-1396,3c-1267,2 -1397,1 -1403,-14zM2760,1955v-145h-1355h-1355v145v145h1355h1355z"></path><path d="M176,1994c-18,-18 -20,-47 -6,-75c22,-39 110,-14 110,32c0,49 -70,78 -104,43z"></path><path d="M362,1998c-7,-7 -12,-26 -12,-43c0,-39 16,-55 56,-55c36,0 57,19 57,55c0,14 -6,32 -13,40c-15,18 -71,20 -88,3z"></path><path d="M550,1995c-7,-8 -12,-26 -12,-40c0,-36 20,-55 56,-55c40,0 56,16 56,55c0,17 -5,36 -12,43c-17,17 -73,15 -88,-3z"></path><path d="M1327,1625c-74,-28 -129,-90 -146,-164l-9,-41h32c29,0 34,4 45,39c14,47 66,96 121,112c77,23 178,-33 201,-112c11,-34 16,-39 41,-39c28,0 29,2 23,33c-11,54 -57,120 -107,150c-56,35 -143,45 -201,22z"></path><path d="M1362,1493c-11,-4 -42,-54 -42,-68c0,-12 48,-4 60,10c7,8 21,15 32,15c10,0 21,-7 24,-15c6,-14 64,-22 64,-10c0,16 -31,63 -45,69c-19,7 -74,7 -93,-1z"></path><path d="M1110,1075v-145h30h30v80c0,44 4,80 8,80c4,0 27,-34 51,-75c38,-67 46,-75 72,-75h29v140v140h-30h-29l-3,-72l-3,-71l-48,71c-41,63 -51,72 -77,72h-30z"></path><path d="M1440,1081v-141h66c77,0 125,19 156,62c29,41 30,107 2,144c-39,53 -68,67 -148,72l-76,5zM1599,1134c42,-35 42,-73 0,-109c-24,-20 -41,-25 -68,-23l-36,3l-3,64c-2,35 -1,70 2,77c9,24 71,17 105,-12z"></path><path d="M407,743c-4,-3 -7,-62 -7,-130v-123h280h280v130v130h-25h-25v-105v-105h-230h-230v105c0,95 -2,105 -18,105c-10,0 -22,-3 -25,-7z"></path><path d="M1140,621v-131h275h275v130c0,123 -1,130 -20,130c-19,0 -20,-7 -20,-105v-105h-230h-229l-3,103c-3,97 -4,102 -25,105c-23,3 -23,3 -23,-127z"></path><path d="M1880,620v-130h275h275v130v130h-25h-25v-105v-105h-230h-230v105c0,98 -1,105 -20,105c-19,0 -20,-7 -20,-130z"></path><path d="M5,717c-3,-6 -4,-167 -3,-357l3,-345h1400h1400l3,358l2,357h-25h-25v-335v-335h-165h-165v140v140h-275h-275v-140v-140h-95h-95v140v140h-275h-275v-140v-140h-90h-90v140v140h-280h-280v-140v-140h-175h-175v335c0,330 0,335 -20,335c-11,0 -23,-6 -25,-13zM910,180v-120h-230h-230v113c0,63 3,117 7,120c3,4 107,7 230,7h223zM1648,178l3,-118h-231h-230v120v120l228,-2l227,-3zM2380,180v-120h-230h-230v113c0,63 3,117 7,120c3,4 107,7 230,7h223z"></path></g></g></g></svg>